<?xml version="1.0" encoding="iso-8859-1"?>
<!-- Generator: Adobe Illustrator 18.1.1, SVG Export Plug-In . SVG Version: 6.00 Build 0)  -->
<svg version="1.1" id="Capa_1" xmlns="http://www.w3.org/2000/svg" xmlns:xlink="http://www.w3.org/1999/xlink" x="0px" y="0px"
	 viewBox="0 0 164.614 164.614" style="enable-background:new 0 0 164.614 164.614;" xml:space="preserve">
<g>
	<g>
		<path style="fill:#010002;" d="M161.619,79.327h-52.556l26.057-26.063c1.158-1.164,1.158-3.055,0-4.219
			c-1.158-1.164-3.061-1.164-4.219,0L99.742,80.198l0,0l-2.112,2.112l2.112,2.106l0,0l31.159,31.159
			c0.591,0.585,1.349,0.871,2.112,0.871c0.758,0,1.528-0.292,2.112-0.871c1.164-1.164,1.164-3.055,0-4.219l-26.057-26.063h52.562
			c1.641,0,2.983-1.337,2.983-2.983S163.271,79.327,161.619,79.327z"/>
		<path style="fill:#010002;" d="M64.854,80.204C64.854,80.204,64.854,80.198,64.854,80.204L33.701,49.039
			c-1.164-1.164-3.055-1.164-4.219,0c-1.164,1.164-1.164,3.055,0,4.219L55.54,79.321H2.983C1.343,79.321,0,80.658,0,82.305
			c0,1.647,1.343,2.983,2.983,2.983h52.562l-26.063,26.069c-1.164,1.164-1.164,3.055,0,4.219c0.585,0.585,1.354,0.871,2.112,0.871
			c0.77,0,1.528-0.292,2.112-0.871l31.159-31.153c0,0,0,0,0-0.006l2.112-2.106L64.854,80.204z"/>
	</g>
</g>
<g>
</g>
<g>
</g>
<g>
</g>
<g>
</g>
<g>
</g>
<g>
</g>
<g>
</g>
<g>
</g>
<g>
</g>
<g>
</g>
<g>
</g>
<g>
</g>
<g>
</g>
<g>
</g>
<g>
</g>
</svg>
