<?xml version="1.0" encoding="iso-8859-1"?>
<!-- Generator: Adobe Illustrator 19.0.0, SVG Export Plug-In . SVG Version: 6.00 Build 0)  -->
<svg version="1.1" id="Layer_1" xmlns="http://www.w3.org/2000/svg" xmlns:xlink="http://www.w3.org/1999/xlink" x="0px" y="0px"
	 viewBox="0 0 512.001 512.001" style="enable-background:new 0 0 512.001 512.001;" xml:space="preserve">
<path style="fill:#CFF09E;" d="M162.969,97.331l-76.634-11.86c-6.363-0.985-11.848,4.5-10.864,10.864l11.86,76.634
	c1.192,7.701,10.628,10.787,16.139,5.276l8.822-8.822l43.093,43.093c8.495,8.495,22.266,8.495,30.761,0l16.368-16.368
	c8.495-8.495,8.495-22.266,0-30.761l-43.091-43.094l8.822-8.822C173.754,107.959,170.67,98.523,162.969,97.331z"/>
<path style="fill:#507C5C;" d="M170.766,233.229c-9.642,0-18.706-3.754-25.524-10.572l-32.999-33
	c-4.319,3.707-9.74,5.729-15.453,5.729c-11.88,0-21.819-8.506-23.633-20.225l-11.86-76.634c-1.067-6.894,0.922-13.882,5.458-19.172
	c4.544-5.302,11.141-8.343,18.097-8.343c1.225,0,2.461,0.095,3.678,0.283l76.634,11.861c8.931,1.381,16.223,7.575,19.033,16.167
	c2.614,7.995,0.868,16.612-4.539,22.921l33,33c14.075,14.075,14.075,36.972,0,51.047l-16.368,16.368
	C189.472,229.475,180.408,233.229,170.766,233.229z M112.293,155.076c3.671,0,7.343,1.401,10.143,4.201l43.093,43.093
	c1.399,1.4,3.259,2.17,5.237,2.17s3.839-0.77,5.237-2.17l16.368-16.368c2.889-2.887,2.889-7.587,0-10.474l-43.093-43.093
	c-2.69-2.691-4.201-6.339-4.201-10.143s1.512-7.453,4.201-10.143l2.097-2.097l-60.72-9.398l9.397,60.722l2.097-2.099
	C104.951,156.478,108.623,155.076,112.293,155.076z"/>
<path style="fill:#CFF09E;" d="M349.033,97.331l76.634-11.86c6.363-0.985,11.848,4.5,10.864,10.864l-11.86,76.634
	c-1.192,7.701-10.628,10.787-16.139,5.276l-8.822-8.822l-43.093,43.093c-8.495,8.495-22.266,8.495-30.761,0l-16.368-16.368
	c-8.495-8.495-8.495-22.266,0-30.761l43.091-43.094l-8.822-8.822C338.246,107.959,341.33,98.523,349.033,97.331z"/>
<path style="fill:#507C5C;" d="M341.234,233.229c-9.641,0-18.706-3.754-25.523-10.572l-16.368-16.368
	c-14.073-14.075-14.073-36.972,0-51.047l33.002-33c-5.406-6.309-7.152-14.924-4.539-22.921c2.809-8.591,10.103-14.786,19.035-16.167
	l76.631-11.861c1.216-0.188,2.454-0.283,3.678-0.283c6.956,0,13.551,3.041,18.097,8.343c4.536,5.29,6.524,12.28,5.458,19.172
	l-11.86,76.634c-1.813,11.718-11.752,20.224-23.632,20.225c-5.713,0-11.134-2.021-15.454-5.729l-33,33
	C359.94,229.475,350.876,233.229,341.234,233.229z M360.626,110.053l2.097,2.097c2.69,2.69,4.201,6.339,4.201,10.143
	s-1.512,7.452-4.201,10.143l-43.093,43.093c-2.887,2.887-2.887,7.587,0,10.474l16.368,16.368c1.399,1.4,3.259,2.17,5.237,2.17
	s3.839-0.77,5.237-2.17l43.093-43.093c5.601-5.6,14.684-5.6,20.287,0l2.097,2.099l9.397-60.722L360.626,110.053z"/>
<path style="fill:#CFF09E;" d="M349.033,414.669l76.634,11.86c6.363,0.985,11.848-4.5,10.864-10.864l-11.86-76.632
	c-1.192-7.701-10.628-10.787-16.139-5.276l-8.822,8.822l-43.093-43.093c-8.495-8.495-22.266-8.495-30.761,0l-16.368,16.368
	c-8.495,8.495-8.495,22.266,0,30.761l43.093,43.093l-8.822,8.822C338.246,404.041,341.33,413.477,349.033,414.669z"/>
<path style="fill:#507C5C;" d="M427.151,440.99L427.151,440.99c-1.225,0-2.463-0.095-3.679-0.283l-76.634-11.861
	c-8.931-1.381-16.223-7.575-19.033-16.167c-2.614-7.995-0.868-16.612,4.539-22.921l-33-33c-14.075-14.074-14.075-36.972,0-51.047
	l16.368-16.368c6.818-6.818,15.882-10.572,25.523-10.572c9.642,0,18.706,3.754,25.524,10.572l33,33
	c4.319-3.707,9.74-5.729,15.453-5.729c11.88,0,21.819,8.506,23.634,20.225l11.86,76.634c1.067,6.894-0.922,13.882-5.458,19.172
	C440.702,437.947,434.105,440.99,427.151,440.99z M360.626,401.949l60.72,9.398l-9.397-60.722l-2.097,2.099
	c-5.601,5.6-14.684,5.6-20.287,0l-43.093-43.093c-1.399-1.4-3.259-2.17-5.237-2.17s-3.839,0.77-5.237,2.17L319.63,326
	c-2.889,2.888-2.889,7.587,0,10.474l43.093,43.093c2.69,2.691,4.201,6.339,4.201,10.143c0,3.804-1.512,7.453-4.201,10.143
	L360.626,401.949z"/>
<path style="fill:#CFF09E;" d="M162.969,414.669l-76.634,11.86c-6.363,0.985-11.848-4.5-10.864-10.864l11.86-76.632
	c1.192-7.701,10.628-10.787,16.139-5.276l8.822,8.822l43.093-43.093c8.495-8.495,22.266-8.495,30.761,0l16.368,16.368
	c8.495,8.495,8.495,22.266,0,30.761l-43.093,43.093l8.822,8.822C173.754,404.041,170.67,413.477,162.969,414.669z"/>
<g>
	<path style="fill:#507C5C;" d="M84.85,440.99c-6.955,0-13.551-3.041-18.097-8.343c-4.536-5.29-6.524-12.28-5.458-19.172
		l11.86-76.635c1.815-11.719,11.754-20.225,23.633-20.225c5.713,0,11.134,2.023,15.453,5.729l33-33
		c6.818-6.818,15.882-10.572,25.524-10.572c9.641,0,18.706,3.754,25.523,10.572l16.368,16.368c14.073,14.074,14.073,36.972,0,51.047
		l-33.002,33c5.406,6.309,7.152,14.924,4.539,22.921c-2.809,8.591-10.103,14.786-19.035,16.167l-76.631,11.861
		C87.312,440.893,86.074,440.99,84.85,440.99z M100.052,350.625l-9.397,60.722l60.72-9.398l-2.097-2.097
		c-2.69-2.69-4.201-6.339-4.201-10.143c0-3.804,1.512-7.452,4.201-10.143l43.093-43.093c2.887-2.887,2.887-7.587,0-10.474
		l-16.368-16.37c-1.399-1.4-3.259-2.17-5.237-2.17s-3.839,0.77-5.237,2.17l-43.093,43.093c-5.601,5.6-14.684,5.6-20.287,0
		L100.052,350.625z"/>
	<path style="fill:#507C5C;" d="M438.695,503.779H73.305C32.884,503.779,0,470.895,0,430.475V81.525
		C0,41.105,32.884,8.221,73.305,8.221h365.391c40.42,0,73.305,32.884,73.305,73.305v348.951
		C512,470.895,479.116,503.779,438.695,503.779z M73.305,36.909c-24.602,0-44.616,20.016-44.616,44.616v348.951
		c0,24.6,20.014,44.616,44.616,44.616h365.391c24.602,0,44.616-20.014,44.616-44.616V81.525c0-24.6-20.014-44.616-44.616-44.616
		C438.695,36.909,73.305,36.909,73.305,36.909z"/>
</g>
<g>
</g>
<g>
</g>
<g>
</g>
<g>
</g>
<g>
</g>
<g>
</g>
<g>
</g>
<g>
</g>
<g>
</g>
<g>
</g>
<g>
</g>
<g>
</g>
<g>
</g>
<g>
</g>
<g>
</g>
</svg>
