<?xml version="1.0" encoding="iso-8859-1"?>
<!-- Generator: Adobe Illustrator 19.0.0, SVG Export Plug-In . SVG Version: 6.00 Build 0)  -->
<svg version="1.1" id="Capa_1" xmlns="http://www.w3.org/2000/svg" xmlns:xlink="http://www.w3.org/1999/xlink" x="0px" y="0px"
	 viewBox="0 0 512 512" style="enable-background:new 0 0 512 512;" xml:space="preserve">
<g>
	<g>
		<path d="M190,206c-5.52,0-10,4.48-10,10s4.48,10,10,10s10-4.48,10-10S195.52,206,190,206z" fill="red"/>
	</g>
</g>
<g>
	<g>
		<path d="M190,306c-5.52,0-10,4.48-10,10c0,5.52,4.48,10,10,10s10-4.48,10-10C200,310.48,195.52,306,190,306z" fill="red"/>
	</g>
</g>
<g>
	<g>
		<path d="M190,409c-5.52,0-10,4.48-10,10c0,5.52,4.48,10,10,10s10-4.48,10-10C200,413.48,195.52,409,190,409z" fill="red"/>
	</g>
</g>
<g>
	<g>
		<path d="M482,0H30C13.458,0,0,13.458,0,30v452c0,16.542,13.458,30,30,30h452c16.542,0,30-13.458,30-30V30
			C512,13.458,498.542,0,482,0z M492,482c0,5.514-4.486,10-10,10H30c-5.514,0-10-4.486-10-10V143h472V482z M492,123H20V30
			c0-5.514,4.486-10,10-10h452c5.514,0,10,4.486,10,10V123z" fill="red"/>
	</g>
</g>
<g>
	<g>
		<path d="M137.071,188.928c-3.906-3.905-10.236-3.905-14.142,0.001L90,221.858l-12.929-12.929c-3.906-3.905-10.236-3.905-14.143,0
			c-3.905,3.905-3.905,10.237,0,14.143l20,20C84.882,245.024,87.44,246,90,246s5.118-0.976,7.071-2.929l40-40
			C140.976,199.166,140.976,192.834,137.071,188.928z" fill="red"/>
	</g>
</g>
<g>
	<g>
		<path d="M137.071,288.928c-3.906-3.905-10.236-3.905-14.142,0.001L90,321.858l-12.929-12.929c-3.906-3.905-10.236-3.905-14.143,0
			c-3.905,3.905-3.905,10.237,0,14.143l20,20C84.882,345.024,87.44,346,90,346s5.118-0.976,7.071-2.929l40-40
			C140.976,299.166,140.976,292.834,137.071,288.928z" fill="red"/>
	</g>
</g>
<g>
	<g>
		<path d="M442,206H230c-5.522,0-10,4.477-10,10s4.478,10,10,10h212c5.522,0,10-4.477,10-10S447.522,206,442,206z" fill="red"/>
	</g>
</g>
<g>
	<g>
		<path d="M442,306H230c-5.522,0-10,4.477-10,10s4.478,10,10,10h212c5.522,0,10-4.477,10-10S447.522,306,442,306z" fill="red"/>
	</g>
</g>
<g>
	<g>
		<path d="M442,409H230c-5.522,0-10,4.477-10,10s4.478,10,10,10h212c5.522,0,10-4.477,10-10S447.522,409,442,409z" fill="red"/>
	</g>
</g>
<g>
	<g>
		<path d="M114.143,419l12.929-12.929c3.905-3.905,3.905-10.237-0.001-14.142c-3.906-3.905-10.236-3.905-14.143,0L100,404.857
			l-12.929-12.929c-3.906-3.905-10.236-3.905-14.143,0c-3.905,3.905-3.905,10.237,0,14.143L85.857,419l-12.929,12.929
			c-3.905,3.905-3.905,10.237,0,14.143C74.882,448.024,77.44,449,80,449s5.118-0.976,7.071-2.929L100,433.143l12.929,12.929
			C114.882,448.024,117.44,449,120,449s5.118-0.976,7.071-2.929c3.905-3.905,3.905-10.237,0-14.143L114.143,419z" fill="red"/>
	</g>
</g>
<g>
	<g>
		<path d="M90,60H70c-5.522,0-10,4.477-10,10s4.478,10,10,10h20c5.522,0,10-4.477,10-10S95.522,60,90,60z" fill="red"/>
	</g>
</g>
<g>
	<g>
		<path d="M150,60h-20c-5.522,0-10,4.477-10,10s4.478,10,10,10h20c5.522,0,10-4.477,10-10S155.522,60,150,60z" fill="red"/>
	</g>
</g>
<g>
	<g>
		<path d="M210,60h-20c-5.522,0-10,4.477-10,10s4.478,10,10,10h20c5.522,0,10-4.477,10-10S215.522,60,210,60z" fill="red"/>
	</g>
</g>
<g>
</g>
<g>
</g>
<g>
</g>
<g>
</g>
<g>
</g>
<g>
</g>
<g>
</g>
<g>
</g>
<g>
</g>
<g>
</g>
<g>
</g>
<g>
</g>
<g>
</g>
<g>
</g>
<g>
</g>
</svg>
