<?xml version="1.0" encoding="iso-8859-1"?>
<!-- Generator: Adobe Illustrator 19.0.0, SVG Export Plug-In . SVG Version: 6.00 Build 0)  -->
<svg version="1.1" id="Layer_1" xmlns="http://www.w3.org/2000/svg" xmlns:xlink="http://www.w3.org/1999/xlink" x="0px" y="0px"
	 viewBox="0 0 512 512" style="enable-background:new 0 0 512 512;" xml:space="preserve">
<g>
	<path style="fill:#50C8EF;" d="M256.004,137.846v59.08l98.458-98.463L256.004,0v59.075C147.247,59.075,59.078,147.241,59.078,256
		c0,54.126,21.842,103.137,57.183,138.732c-16.883-26.04-26.724-57.075-26.724-90.419
		C89.54,212.375,164.064,137.846,256.004,137.846z"/>
	<path style="fill:#50C8EF;" d="M395.731,117.266c16.883,26.043,26.732,57.075,26.732,90.424
		c0,91.935-74.532,166.464-166.467,166.464v-59.08l-98.458,98.468L255.999,512v-59.075c108.759,0,196.923-88.166,196.923-196.925
		C452.922,201.874,431.072,152.865,395.731,117.266z"/>
</g>
<g>
</g>
<g>
</g>
<g>
</g>
<g>
</g>
<g>
</g>
<g>
</g>
<g>
</g>
<g>
</g>
<g>
</g>
<g>
</g>
<g>
</g>
<g>
</g>
<g>
</g>
<g>
</g>
<g>
</g>
</svg>
