<?xml version="1.0" encoding="iso-8859-1"?>
<!-- Generator: Adobe Illustrator 19.0.0, SVG Export Plug-In . SVG Version: 6.00 Build 0)  -->
<svg version="1.1" id="Layer_1" xmlns="http://www.w3.org/2000/svg" xmlns:xlink="http://www.w3.org/1999/xlink" x="0px" y="0px"
	 viewBox="0 0 512 512" style="enable-background:new 0 0 512 512;" xml:space="preserve">
<circle style="fill:#FF9013;" cx="122.959" cy="340.646" r="111.814"/>
<path d="M182.628,135.012c-0.736,0-1.46-0.067-2.185-0.211c-0.713-0.145-1.416-0.357-2.084-0.635s-1.315-0.624-1.928-1.025
	c-0.602-0.4-1.181-0.869-1.694-1.382c-0.513-0.513-0.981-1.081-1.382-1.694c-0.401-0.602-0.747-1.259-1.025-1.928
	c-0.279-0.669-0.49-1.37-0.635-2.083c-0.145-0.714-0.223-1.45-0.223-2.173c0-0.736,0.078-1.461,0.223-2.185
	c0.145-0.714,0.357-1.405,0.635-2.084c0.279-0.67,0.624-1.316,1.025-1.928c0.401-0.602,0.869-1.181,1.382-1.694
	s1.092-0.981,1.694-1.382c0.613-0.401,1.259-0.747,1.928-1.025c0.669-0.279,1.371-0.49,2.084-0.635c1.438-0.29,2.92-0.29,4.358,0
	c0.713,0.145,1.416,0.357,2.084,0.635c0.669,0.279,1.315,0.624,1.928,1.025c0.602,0.401,1.17,0.869,1.694,1.382
	c0.513,0.513,0.981,1.091,1.382,1.694c0.401,0.613,0.747,1.259,1.025,1.928c0.279,0.679,0.49,1.37,0.635,2.084
	c0.145,0.723,0.223,1.449,0.223,2.185c0,0.723-0.078,1.46-0.223,2.173c-0.145,0.713-0.357,1.415-0.635,2.083
	c-0.279,0.67-0.624,1.326-1.025,1.928c-0.412,0.613-0.869,1.181-1.382,1.694c-0.524,0.513-1.092,0.982-1.694,1.382
	c-0.613,0.401-1.259,0.747-1.928,1.025s-1.371,0.49-2.084,0.635C184.077,134.947,183.352,135.012,182.628,135.012z"/>
<circle style="fill:#5CA2DD;" cx="122.959" cy="340.646" r="75.267"/>
<path d="M122.958,427.052c-47.646,0-86.407-38.761-86.407-86.407s38.761-86.407,86.407-86.407s86.407,38.761,86.407,86.407
	S170.604,427.052,122.958,427.052z M122.958,276.528c-35.353,0-64.116,28.763-64.116,64.116s28.763,64.116,64.116,64.116
	c35.354,0,64.116-28.763,64.116-64.116S158.312,276.528,122.958,276.528z"/>
<circle style="fill:#FF9013;" cx="389.041" cy="340.646" r="111.814"/>
<path d="M329.383,135.012c-2.942,0-5.818-1.181-7.88-3.255c-0.513-0.513-0.981-1.081-1.393-1.694
	c-0.401-0.602-0.747-1.259-1.025-1.928c-0.279-0.669-0.49-1.37-0.635-2.083c-0.145-0.714-0.212-1.45-0.212-2.173
	c0-0.736,0.067-1.461,0.212-2.185c0.145-0.714,0.357-1.405,0.635-2.084c0.279-0.67,0.624-1.316,1.025-1.928
	c0.401-0.602,0.869-1.181,1.382-1.694c2.597-2.586,6.442-3.78,10.065-3.043c0.713,0.145,1.415,0.357,2.084,0.635
	c0.68,0.279,1.326,0.624,1.928,1.025c0.613,0.401,1.181,0.869,1.694,1.382s0.981,1.091,1.382,1.694
	c0.401,0.613,0.747,1.259,1.025,1.928c0.279,0.679,0.49,1.37,0.635,2.084c0.145,0.723,0.212,1.449,0.212,2.185
	c0,0.723-0.067,1.46-0.212,2.173s-0.357,1.415-0.635,2.083c-0.279,0.67-0.624,1.326-1.025,1.928
	c-0.401,0.613-0.869,1.181-1.382,1.694c-0.513,0.513-1.081,0.982-1.694,1.382c-0.602,0.401-1.248,0.747-1.928,1.025
	c-0.669,0.279-1.371,0.49-2.084,0.635C330.843,134.947,330.108,135.012,329.383,135.012z"/>
<circle style="fill:#5CA2DD;" cx="389.041" cy="340.646" r="75.267"/>
<path d="M389.042,427.052c-47.646,0-86.407-38.761-86.407-86.407s38.763-86.407,86.407-86.407s86.407,38.761,86.407,86.407
	S436.686,427.052,389.042,427.052z M389.042,276.528c-35.354,0-64.116,28.763-64.116,64.116s28.763,64.116,64.116,64.116
	s64.116-28.763,64.116-64.116S424.395,276.528,389.042,276.528z"/>
<path d="M510.786,323.408c-0.007-0.07-0.021-0.14-0.03-0.211c-0.693-4.858-1.671-9.627-2.917-14.287l-38.83-187.035
	c-0.45-2.788-3.407-19.214-12.857-35.707c-14.157-24.71-35.749-37.771-62.443-37.771c-25.313,0-48.811,12.592-62.858,33.685
	c-3.412,5.124-2.024,12.043,3.099,15.455c5.123,3.412,12.042,2.024,15.455-3.099c9.904-14.871,26.467-23.749,44.305-23.749
	c44.506,0,52.968,52.583,53.302,54.793c0.032,0.22,0.07,0.439,0.116,0.658l25.909,124.797
	c-21.997-20.609-51.546-33.251-83.996-33.251c-64.042,0-116.797,49.217-122.449,111.813h-21.186
	C239.754,266.904,187,217.687,122.957,217.687c-32.45,0-61.999,12.641-83.996,33.251L64.87,126.14
	c0.046-0.218,0.085-0.438,0.116-0.658c0.02-0.14,2.261-14.375,10.202-28.233c10.097-17.625,24.599-26.56,43.1-26.56
	c17.839,0,34.401,8.879,44.305,23.749c3.413,5.121,10.332,6.512,15.455,3.099c5.124-3.413,6.51-10.332,3.098-15.455
	C167.099,60.99,143.6,48.398,118.288,48.398c-26.694,0-48.285,13.061-62.443,37.771c-9.449,16.493-12.406,32.92-12.857,35.707
	L4.161,308.91c-1.246,4.661-2.224,9.428-2.917,14.287c-0.009,0.07-0.022,0.14-0.03,0.211C0.42,329.041,0,334.795,0,340.644
	c0,67.799,55.159,122.958,122.958,122.958c64.042,0,116.797-49.217,122.449-111.813h21.186
	c5.652,62.595,58.406,111.813,122.449,111.813c67.799,0,122.958-55.159,122.958-122.958C512,334.795,511.58,329.041,510.786,323.408
	z M122.958,441.312c-55.508,0-100.667-45.159-100.667-100.668c0-4.877,0.356-9.673,1.03-14.367l2.526-12.164
	c11.672-42.677,50.784-74.137,97.112-74.137c55.509,0,100.668,45.159,100.668,100.667S178.467,441.312,122.958,441.312z
	 M389.042,441.312c-55.509,0-100.668-45.159-100.668-100.667s45.159-100.667,100.668-100.667c46.328,0,85.44,31.46,97.112,74.137
	l2.526,12.164c0.673,4.693,1.03,9.489,1.03,14.367C489.709,396.153,444.55,441.312,389.042,441.312z"/>
<g>
</g>
<g>
</g>
<g>
</g>
<g>
</g>
<g>
</g>
<g>
</g>
<g>
</g>
<g>
</g>
<g>
</g>
<g>
</g>
<g>
</g>
<g>
</g>
<g>
</g>
<g>
</g>
<g>
</g>
</svg>
