<?xml version="1.0" encoding="iso-8859-1"?>
<!-- Generator: Adobe Illustrator 19.0.0, SVG Export Plug-In . SVG Version: 6.00 Build 0)  -->
<svg version="1.1" id="Capa_1" xmlns="http://www.w3.org/2000/svg" xmlns:xlink="http://www.w3.org/1999/xlink" x="0px" y="0px"
	 viewBox="0 0 360 360" style="enable-background:new 0 0 360 360;" xml:space="preserve">
<g id="XMLID_1215_">
	<polygon id="XMLID_1227_" style="fill:#CCF8F3;" points="159.999,197.77 159.999,360 179.999,360 179.999,187.254 	"/>
	<polygon id="XMLID_1228_" style="fill:#00D7DF;" points="179.999,360 199.999,360 199.999,197.769 179.999,187.254 	"/>
	<rect id="XMLID_1229_" x="159.999" style="fill:#FFF0B4;" width="20" height="50"/>
	<rect id="XMLID_1230_" x="179.999" style="fill:#FFDA44;" width="20" height="50"/>
	
		<rect id="XMLID_1231_" x="59.539" y="58.682" transform="matrix(0.7071 0.7071 -0.7071 0.7071 73.327 -39.6618)" style="fill:#FFF0B4;" width="50" height="20.001"/>
	
		<rect id="XMLID_1232_" x="73.682" y="44.541" transform="matrix(0.7071 0.7071 -0.7071 0.7071 67.4679 -53.8038)" style="fill:#FFDA44;" width="49.999" height="19.999"/>
	<rect id="XMLID_1233_" x="30" y="150" style="fill:#FFF0B4;" width="50" height="20.002"/>
	<rect id="XMLID_1234_" x="30" y="130" style="fill:#FFDA44;" width="50" height="20"/>
	
		<rect id="XMLID_1235_" x="88.681" y="220.46" transform="matrix(-0.7071 -0.7071 0.7071 -0.7071 -5.1064 488.8047)" style="fill:#FFF0B4;" width="20.002" height="50"/>
	
		<rect id="XMLID_1236_" x="59.539" y="221.317" transform="matrix(0.7071 -0.7071 0.7071 0.7071 -138.8049 127.5295)" style="fill:#FFDA44;" width="50" height="20.001"/>
	
		<rect id="XMLID_1237_" x="250.46" y="221.317" transform="matrix(-0.7071 -0.7071 0.7071 -0.7071 306.6735 589.663)" style="fill:#FFF0B4;" width="50" height="20.001"/>
	
		<rect id="XMLID_1238_" x="236.316" y="235.459" transform="matrix(-0.7071 -0.7071 0.7071 -0.7071 272.5239 603.8055)" style="fill:#FFDA44;" width="50.001" height="20.001"/>
	<rect id="XMLID_1239_" x="280" y="129.999" style="fill:#FFF0B4;" width="50.001" height="20"/>
	<rect id="XMLID_1240_" x="280" y="150" style="fill:#FFDA44;" width="50.001" height="20.002"/>
	
		<rect id="XMLID_1241_" x="251.317" y="29.54" transform="matrix(0.7071 0.7071 -0.7071 0.7071 115.1039 -168.8044)" style="fill:#FFF0B4;" width="20.001" height="50.001"/>
	
		<rect id="XMLID_1242_" x="250.459" y="58.682" transform="matrix(-0.7071 0.7071 -0.7071 -0.7071 518.8071 -77.5264)" style="fill:#FFDA44;" width="50.001" height="20.002"/>
	<polygon id="XMLID_1243_" style="fill:#FFDA44;" points="179.999,140 179.999,76.852 158.368,120.68 109.999,127.71 
		144.999,161.825 136.738,210 159.999,197.77 179.999,187.254 	"/>
	<polygon id="XMLID_1244_" style="fill:#FF9811;" points="214.999,161.825 249.999,127.71 201.632,120.68 179.999,76.852 
		179.999,140 179.999,187.254 199.999,197.769 223.265,210 	"/>
</g>
<g>
</g>
<g>
</g>
<g>
</g>
<g>
</g>
<g>
</g>
<g>
</g>
<g>
</g>
<g>
</g>
<g>
</g>
<g>
</g>
<g>
</g>
<g>
</g>
<g>
</g>
<g>
</g>
<g>
</g>
</svg>
