<?xml version="1.0" encoding="iso-8859-1"?>
<!-- Generator: Adobe Illustrator 19.0.0, SVG Export Plug-In . SVG Version: 6.00 Build 0)  -->
<svg version="1.1" id="Layer_1" xmlns="http://www.w3.org/2000/svg" xmlns:xlink="http://www.w3.org/1999/xlink" x="0px" y="0px"
	 viewBox="0 0 512.001 512.001" style="enable-background:new 0 0 512.001 512.001;" xml:space="preserve">
<g>
	<g>
		<g>
			<path d="M325.879,186.121V31.02H31.02v170.78h155.101v139.422H31.02v170.78h294.86V356.899h155.101V186.121H325.879z
				 M46.699,186.121V46.699h263.503v139.422H186.121H46.699z M310.202,496.321h-0.001H46.699V356.899h139.422h124.081V496.321z
				 M465.302,341.22h-0.001H325.879h-124.08V201.799H325.88h139.422V341.22z"/>
			<polygon points="100.984,333.55 100.984,310.201 46.53,310.201 46.53,333.55 62.209,333.55 62.209,325.879 85.305,325.879 
				85.305,333.55 			"/>
			<polygon points="170.779,333.55 170.779,310.201 116.325,310.201 116.325,333.55 132.004,333.55 132.004,325.879 155.1,325.879 
				155.1,333.55 			"/>
			<polygon points="356.899,170.78 379.996,170.78 379.996,178.45 395.675,178.45 395.675,155.101 341.22,155.101 341.22,178.45 
				356.899,178.45 			"/>
			<polygon points="426.695,170.78 449.791,170.78 449.791,178.45 465.47,178.45 465.47,155.101 411.016,155.101 411.016,178.45 
				426.695,178.45 			"/>
			<rect x="62.13" y="465.304" width="23.265" height="15.679"/>
			<rect x="100.898" y="465.304" width="54.285" height="15.679"/>
			<polygon points="217.141,248.245 232.819,248.245 232.819,232.819 256,232.819 256,217.141 217.141,217.141 			"/>
			<rect x="217.141" y="263.759" width="15.679" height="15.51"/>
			<polygon points="132.004,15.679 155.1,15.679 155.1,23.349 170.779,23.349 170.779,0 116.325,0 116.325,23.349 132.004,23.349 
							"/>
			<polygon points="62.236,15.679 85.333,15.679 85.333,23.349 101.012,23.349 101.012,0 46.558,0 46.558,23.349 62.236,23.349 			
				"/>
			<polygon points="271.839,15.679 294.936,15.679 294.936,23.349 310.614,23.349 310.614,0 256.16,0 256.16,23.349 271.839,23.349 
							"/>
			<polygon points="202.071,15.679 225.168,15.679 225.168,23.349 240.847,23.349 240.847,0 186.392,0 186.392,23.349 
				202.071,23.349 			"/>
			<rect x="62.13" y="155.105" width="116.326" height="15.679"/>
		</g>
	</g>
</g>
<g>
</g>
<g>
</g>
<g>
</g>
<g>
</g>
<g>
</g>
<g>
</g>
<g>
</g>
<g>
</g>
<g>
</g>
<g>
</g>
<g>
</g>
<g>
</g>
<g>
</g>
<g>
</g>
<g>
</g>
</svg>
